<svg width="109" height="16" viewBox="0 0 109 16" fill="none" xmlns="http://www.w3.org/2000/svg">
<path d="M17 6.12414H10.5117L8.5 0L6.48833 6.12414H0L5.24167 9.90345L3.25833 16L8.5 12.2207L13.7417 16L11.73 9.87586L17 6.12414Z" fill="#FFCE31"/>
<path d="M40 6.12414H33.5117L31.5 0L29.4883 6.12414H23L28.2417 9.90345L26.2583 16L31.5 12.2207L36.7417 16L34.73 9.87586L40 6.12414Z" fill="#FFCE31"/>
<path d="M63 6.12414H56.5117L54.5 0L52.4883 6.12414H46L51.2417 9.90345L49.2583 16L54.5 12.2207L59.7417 16L57.73 9.87586L63 6.12414Z" fill="#FFCE31"/>
<path d="M86 6.12414H79.5117L77.5 0L75.4883 6.12414H69L74.2417 9.90345L72.2583 16L77.5 12.2207L82.7417 16L80.73 9.87586L86 6.12414Z" fill="#FFCE31"/>
<path d="M109 6.12414H102.512L100.5 0L98.4883 6.12414H92L97.2417 9.90345L95.2583 16L100.5 12.2207L105.742 16L103.73 9.87586L109 6.12414Z" fill="#FFCE31"/>
</svg>
