<svg width="42" height="28" viewBox="0 0 42 28" fill="none" xmlns="http://www.w3.org/2000/svg">
<path d="M28 13.31C29.6367 12.3552 31.5795 11.8979 33.5352 12.0072C35.4909 12.1164 37.3534 12.7862 38.8419 13.9155C40.3304 15.0449 41.3641 16.5725 41.7871 18.268C42.21 19.9635 41.9993 21.7349 41.1867 23.315C40.3741 24.895 39.0037 26.1981 37.2821 27.0276C35.5606 27.8571 33.5814 28.1681 31.643 27.9135C29.7046 27.659 27.9121 26.8529 26.536 25.6166C25.1599 24.3804 24.2748 22.7812 24.0142 21.0602C23.1899 17.4723 22.8692 13.1599 24.4816 9.25582C26.2115 5.07355 30.046 1.6437 36.9133 0.0508327C37.4856 -0.0656891 38.0866 0.019886 38.5889 0.289412C39.0911 0.558937 39.4552 0.991219 39.6038 1.49459C39.7524 1.99796 39.6739 2.53283 39.385 2.98579C39.0961 3.43875 38.6194 3.77417 38.056 3.92093C32.5007 5.20962 29.9037 7.78302 28.7227 10.6326C28.3726 11.483 28.1355 12.3815 28 13.31Z" fill="#D99E39" fill-opacity="0.4"/>
<path d="M4.66667 13.31C6.30341 12.3552 8.24615 11.8979 10.2018 12.0072C12.1575 12.1164 14.0201 12.7862 15.5086 13.9155C16.9971 15.0449 18.0308 16.5725 18.4537 18.268C18.8767 19.9635 18.666 21.7349 17.8534 23.315C17.0407 24.895 15.6703 26.1981 13.9488 27.0276C12.2273 27.8571 10.248 28.1681 8.30963 27.9135C6.37122 27.659 4.57878 26.8529 3.20268 25.6166C1.82658 24.3804 0.941467 22.7812 0.680849 21.0602C-0.143414 17.4723 -0.464087 13.1599 1.14831 9.25582C2.87813 5.07355 6.71265 1.6437 13.58 0.0508327C14.1523 -0.0656891 14.7533 0.019886 15.2555 0.289412C15.7578 0.558937 16.1218 0.991219 16.2705 1.49459C16.4191 1.99796 16.3406 2.53283 16.0517 2.98579C15.7627 3.43875 15.286 3.77417 14.7227 3.92093C9.16738 5.20962 6.57038 7.78302 5.38932 10.6326C5.03929 11.483 4.80217 12.3815 4.66667 13.31Z" fill="#D99E39" fill-opacity="0.4"/>
</svg>
